<?xml version="1.0" encoding="UTF-8"?>
<svg width="423px" height="308px" viewBox="0 0 423 308" version="1.1" xmlns="http://www.w3.org/2000/svg" xmlns:xlink="http://www.w3.org/1999/xlink">
    <title>Graphic</title>
    <defs>
        <rect id="path-1" x="47.1268917" y="0" width="339.623203" height="204.331574" rx="10.4"></rect>
        <filter x="-7.1%" y="-11.3%" width="116.5%" height="127.4%" filterUnits="objectBoundingBox" id="filter-2">
            <feMorphology radius="0.5" operator="dilate" in="SourceAlpha" result="shadowSpreadOuter1"></feMorphology>
            <feOffset dx="4" dy="5" in="shadowSpreadOuter1" result="shadowOffsetOuter1"></feOffset>
            <feGaussianBlur stdDeviation="8" in="shadowOffsetOuter1" result="shadowBlurOuter1"></feGaussianBlur>
            <feColorMatrix values="0 0 0 0 0.160784314   0 0 0 0 0.219607843   0 0 0 0 0.278431373  0 0 0 0.08 0" type="matrix" in="shadowBlurOuter1"></feColorMatrix>
        </filter>
        <rect id="path-3" x="55.8551207" y="9.83335981" width="321.046028" height="185.024506" rx="6.72130963"></rect>
        <filter x="-0.5%" y="-0.8%" width="100.9%" height="101.6%" filterUnits="objectBoundingBox" id="filter-4">
            <feGaussianBlur stdDeviation="1.5" in="SourceAlpha" result="shadowBlurInner1"></feGaussianBlur>
            <feOffset dx="0" dy="0" in="shadowBlurInner1" result="shadowOffsetInner1"></feOffset>
            <feComposite in="shadowOffsetInner1" in2="SourceAlpha" operator="arithmetic" k2="-1" k3="1" result="shadowInnerInner1"></feComposite>
            <feColorMatrix values="0 0 0 0 0   0 0 0 0 0   0 0 0 0 0  0 0 0 0.02 0" type="matrix" in="shadowInnerInner1"></feColorMatrix>
        </filter>
        <path d="M19.0395617,19.8824696 L19.6535326,19.2694703 C19.9925457,18.9309937 19.9925457,18.3822444 19.6535326,18.0434986 L16.8909599,15.2852979 L19.6535326,12.5270971 C19.9925457,12.1886474 19.9925457,11.6398712 19.6535326,11.3011254 L19.0395617,10.6881261 C18.7005486,10.3496495 18.1509295,10.3496495 17.8116468,10.6881261 L15.0490741,13.4463269 L12.2865014,10.6881261 C11.9475152,10.3496495 11.3978692,10.3496495 11.0585865,10.6881261 L10.4446155,11.3011254 C10.1056024,11.639602 10.1056024,12.1883513 10.4446155,12.5270971 L13.2071882,15.2852979 L10.4446155,18.0434986 C10.1056024,18.3819483 10.1056024,18.9307246 10.4446155,19.2694703 L11.0585865,19.8824696 C11.3975996,20.2209462 11.9475152,20.2209462 12.2865014,19.8824696 L15.0490741,17.1242689 L17.8116468,19.8824696 C18.1506329,20.2209462 18.7005486,20.2209462 19.0395617,19.8824696 Z" id="path-5"></path>
        <path d="M70.0587074,93.4238733 L70.4884871,92.9947737 C70.7257963,92.7578401 70.7257963,92.3737155 70.4884871,92.1365935 L68.5546861,90.2058528 L70.4884871,88.2751121 C70.7257963,88.0381973 70.7257963,87.6540539 70.4884871,87.4169319 L70.0587074,86.9878323 C69.8213982,86.7508987 69.4366648,86.7508987 69.1991669,86.9878323 L67.2653659,88.918573 L65.3315648,86.9878323 C65.0942745,86.7508987 64.7095222,86.7508987 64.4720243,86.9878323 L64.0422446,87.4169319 C63.8049355,87.6538655 63.8049355,88.0379901 64.0422446,88.2751121 L65.9760457,90.2058528 L64.0422446,92.1365935 C63.8049355,92.3735083 63.8049355,92.7576517 64.0422446,92.9947737 L64.4720243,93.4238733 C64.7093335,93.6608069 65.0942745,93.6608069 65.3315648,93.4238733 L67.2653659,91.4931326 L69.1991669,93.4238733 C69.4364572,93.6608069 69.8213982,93.6608069 70.0587074,93.4238733 Z" id="path-6"></path>
        <path d="M68.9933287,130.918486 L69.3136005,130.598721 C69.4904433,130.422158 69.4904433,130.135908 69.3136005,129.959205 L67.872532,128.520417 L69.3136005,127.081629 C69.4904433,126.90508 69.4904433,126.618816 69.3136005,126.442113 L68.9933287,126.122348 C68.8164859,125.945785 68.5297826,125.945785 68.3527991,126.122348 L66.9117307,127.561136 L65.4706622,126.122348 C65.2938335,125.945785 65.0071161,125.945785 64.8301326,126.122348 L64.5098608,126.442113 C64.333018,126.618676 64.333018,126.904926 64.5098608,127.081629 L65.9509293,128.520417 L64.5098608,129.959205 C64.333018,130.135754 64.333018,130.422017 64.5098608,130.598721 L64.8301326,130.918486 C65.0069754,131.095049 65.2938335,131.095049 65.4706622,130.918486 L66.9117307,129.479698 L68.3527991,130.918486 C68.5296279,131.095049 68.8164859,131.095049 68.9933287,130.918486 Z" id="path-7"></path>
        <path d="M46.3509975,48.4030207 L47.8456834,46.9107002 C48.6709963,46.0866934 48.6709963,44.7507867 47.8456834,43.9261246 L41.1203185,37.211403 L47.8456834,30.4966813 C48.6709963,29.67274 48.6709963,28.3367678 47.8456834,27.5121057 L46.3509975,26.0197852 C45.5256846,25.1957784 44.1876604,25.1957784 43.3616912,26.0197852 L36.6363263,32.7345068 L29.9109614,26.0197852 C29.0857141,25.1957784 27.7476243,25.1957784 26.9216551,26.0197852 L25.4269691,27.5121057 C24.6016562,28.3361125 24.6016562,29.6720192 25.4269691,30.4966813 L32.152334,37.211403 L25.4269691,43.9261246 C24.6016562,44.7500659 24.6016562,46.0860381 25.4269691,46.9107002 L26.9216551,48.4030207 C27.746968,49.2270275 29.0857141,49.2270275 29.9109614,48.4030207 L36.6363263,41.6882991 L43.3616912,48.4030207 C44.1869384,49.2270275 45.5256846,49.2270275 46.3509975,48.4030207 Z" id="path-8"></path>
    </defs>
    <g id="--------Components" stroke="none" stroke-width="1" fill="none" fill-rule="evenodd">
        <g id="404---From-Short-Links" transform="translate(-506.000000, -231.000000)">
            <g id="Graphic" transform="translate(506.000000, 231.000000)">
                <rect id="Rectangle" x="6.3" y="0.868421053" width="416" height="306.8"></rect>
                <g id="Group-2" transform="translate(0.449906, 23.584287)">
                    <g id="Rectangle" transform="translate(216.938493, 102.165787) scale(-1, 1) translate(-216.938493, -102.165787) ">
                        <use fill="black" fill-opacity="1" filter="url(#filter-2)" xlink:href="#path-1"></use>
                        <use fill="#FFFFFF" fill-rule="evenodd" xlink:href="#path-1"></use>
                    </g>
                    <g id="Rectangle" transform="translate(216.378134, 102.345613) scale(-1, 1) translate(-216.378134, -102.345613) ">
                        <use fill-opacity="0.42" fill="#EBEDF0" fill-rule="evenodd" xlink:href="#path-3"></use>
                        <use fill="black" fill-opacity="1" filter="url(#filter-4)" xlink:href="#path-3"></use>
                    </g>
                    <g id="Group" transform="translate(216.295106, 18.440026) scale(-1, 1) translate(-216.295106, -18.440026) translate(55.295106, 9.440026)">
                        <path d="M3.67853503,1.05643783e-13 L317.791084,1.05643783e-13 C319.822682,1.05714673e-13 321.469619,1.64693623 321.469619,3.67853503 L321.469619,17.4268028 L321.469619,17.4268028 L4.2996311e-13,17.4268028 L4.2996311e-13,3.67853503 C4.29270222e-13,1.64693623 1.64693623,1.05572892e-13 3.67853503,1.05643783e-13 Z" id="Rectangle" fill="#C8CFD5"></path>
                        <ellipse id="Oval" fill="#FFFFFF" cx="292.867118" cy="8.7134014" rx="2.18180316" ry="2.17835035"></ellipse>
                        <ellipse id="Oval-Copy-8" fill="#FFFFFF" cx="299.412527" cy="8.7134014" rx="2.18180316" ry="2.17835035"></ellipse>
                        <ellipse id="Oval-Copy-9" fill="#FFFFFF" cx="305.957937" cy="8.7134014" rx="2.18180316" ry="2.17835035"></ellipse>
                    </g>
                    <g id="Group-19" transform="translate(217.703256, 111.300111) scale(-1, 1) translate(-217.703256, -111.300111) translate(78.203256, 41.300111)" fill-rule="nonzero">
                        <g id="Group-40" transform="translate(0.000000, 75.009935)" fill="#FFFFFF">
                            <rect id="Rectangle" x="0" y="42.5056296" width="132.369843" height="21.2528148"></rect>
                            <rect id="Rectangle" x="0" y="0" width="132.369843" height="31.2541394"></rect>
                        </g>
                        <rect id="Rectangle" fill="#FFFFFF" x="0" y="0" width="133.37115" height="62.5082789"></rect>
                        <g id="Group-42" transform="translate(51.296596, 17.925396)">
                            <rect id="Rectangle" fill-opacity="0.1" fill="#DC3535" x="0" y="0" width="30.1535309" height="30.1058114" rx="15.0529057"></rect>
                            <g id="t">
                                <use fill="#FFFFFF" xlink:href="#path-5"></use>
                                <use fill="#DC3535" xlink:href="#path-5"></use>
                            </g>
                        </g>
                        <rect id="Rectangle" fill-opacity="0.1" fill="#DC3535" x="56.4262557" y="79.3838959" width="21.1074731" height="21.0740694" rx="10.5370347"></rect>
                        <g id="t">
                            <use fill="#FFFFFF" xlink:href="#path-6"></use>
                            <use fill="#DC3535" xlink:href="#path-6"></use>
                        </g>
                        <rect id="Rectangle" fill-opacity="0.1" fill="#DC3535" x="58.9910855" y="120.356229" width="15.7292884" height="15.704396" rx="7.852198"></rect>
                        <g id="t">
                            <use fill="#FFFFFF" xlink:href="#path-7"></use>
                            <use fill="#DC3535" xlink:href="#path-7"></use>
                        </g>
                        <rect id="Rectangle" fill="#FFFFFF" x="146.195299" y="0" width="132.369843" height="138.281625"></rect>
                        <g id="Group-42" transform="translate(174.408427, 33.290021)">
                            <rect id="Rectangle" fill-opacity="0.1" fill="#DC3535" x="0" y="0" width="73.4074794" height="73.2913084" rx="36.6456542"></rect>
                            <g id="t">
                                <use fill="#FFFFFF" xlink:href="#path-8"></use>
                                <use fill="#DC3535" xlink:href="#path-8"></use>
                            </g>
                        </g>
                    </g>
                    <g id="Group-16" transform="translate(124.372452, 157.537022) scale(-1, 1) rotate(20.000000) translate(-124.372452, -157.537022) translate(27.372452, 61.037022)">
                        <g id="magnifying-glass" transform="translate(-0.000000, 0.000000)">
                            <path d="M114.974249,103.132466 L103.295937,114.792297 C102.164311,115.922132 100.329777,115.922132 99.1981516,114.792297 L91.7813578,107.38724 L107.557734,91.6358308 L114.974528,99.040887 C116.105875,100.170722 116.105875,102.002631 114.974249,103.132466 Z" id="Path" fill="#E4E8ED" fill-rule="nonzero"></path>
                            <polygon id="Path" fill="#E4E8ED" fill-rule="nonzero" transform="translate(113.848787, 113.687804) rotate(-45.000000) translate(-113.848787, -113.687804) " points="107.156414 106.995431 120.53057 107.006022 120.541161 120.380178 107.167005 120.369587"></polygon>
                            <path d="M168.706268,183.934947 L112.761484,128.334443 L112.761484,128.334443 C111.629858,127.204608 111.629858,125.372977 112.761484,124.243142 L124.439796,112.583312 C125.571422,111.453477 127.405956,111.453477 128.537582,112.583312 L185.155885,166.859615 C189.913263,171.420205 190.072791,178.973911 185.512201,183.731289 C185.505283,183.738505 185.498357,183.745712 185.491421,183.752911 C180.977965,188.437497 173.521478,188.576225 168.836892,184.062769 C168.793021,184.0205 168.749478,183.977892 168.706268,183.934947 Z" id="Path" fill="#C8CFD5"></path>
                            <path d="M60.8004147,0.271806503 C94.229204,0.271806503 121.328592,27.3283084 121.328592,60.704195 C121.328592,94.0800816 94.229204,121.136584 60.8004147,121.136584 C27.3716254,121.136584 0.272237332,94.0800816 0.272237332,60.704195 C0.272237332,27.3283084 27.3716254,0.271806503 60.8004147,0.271806503 Z M60.8004147,16.3873871 C36.3065092,16.3873871 16.4502755,36.2286979 16.4502755,60.704195 C16.4502755,85.1796922 36.3065092,105.021003 60.8004147,105.021003 C85.2943202,105.021003 105.150554,85.1796922 105.150554,60.704195 C105.150554,36.2286979 85.2943202,16.3873871 60.8004147,16.3873871 Z" id="Combined-Shape" fill="#C8CFD5"></path>
                            <g id="Group-221" opacity="0.18" transform="translate(16.450276, 16.387387)" fill-rule="nonzero">
                                <ellipse id="Oval" fill="#E4F6FF" cx="44.3501392" cy="44.3168079" rx="44.3501392" ry="44.3168079"></ellipse>
                                <path d="M71.1162417,8.99293294 C76.768713,16.4291207 80.1247023,25.7004621 80.1247023,35.7552758 C80.1247023,60.2310429 60.2498596,80.0720837 35.7332399,80.0720837 C25.6614882,80.0720837 16.3745286,76.7213606 8.92581417,71.078773 C17.0321799,81.7440454 29.8639481,88.633238 44.308816,88.633238 C68.8258141,88.633238 88.7002784,68.7918195 88.7002784,44.3164301 C88.7002784,29.8958545 81.7991021,17.0860437 71.1162417,8.99293294 Z" id="Path" fill="#D3EFFB"></path>
                            </g>
                            <path d="M97.3932397,12.5754201 C105.12779,22.7246737 109.722036,35.3867807 109.722036,49.1213457 C109.722036,82.497117 82.6100405,109.553734 49.1659576,109.553734 C35.4032814,109.553734 22.7152583,104.968872 12.5452318,97.2501206 C23.6059447,111.764003 41.0911072,121.136584 60.772514,121.136584 C94.2165969,121.136584 121.328592,94.0799663 121.328592,60.704195 C121.328592,41.0629888 111.936449,23.613163 97.3932397,12.5754201 Z" id="Path" fill="#BBC1C7"></path>
                        </g>
                    </g>
                </g>
            </g>
        </g>
    </g>
</svg>